<?xml version="1.0" encoding="UTF-8"?>
<svg width="40px" height="30px" viewBox="0 0 40 30" version="1.1" xmlns="http://www.w3.org/2000/svg" xmlns:xlink="http://www.w3.org/1999/xlink">
    <!-- Generator: Sketch 56.1 (81669) - https://sketch.com -->
    <title>Path</title>
    <desc>Created with Sketch.</desc>
    <g id="Page-1" stroke="none" stroke-width="1" fill="none" fill-rule="evenodd">
        <g id="Alert-Coyote" transform="translate(-846.000000, -20.000000)" fill="#FFFFFF" fill-rule="nonzero">
            <path d="M884.074937,26.9896702 C883.1019,26.9862331 882.73937,26.7503835 881.949749,25.3069711 C880.732045,22.8430715 878.48353,22.9635331 878.48353,22.9635331 C877.245961,17.0275219 876.477695,21.5227394 876.053585,23.4457072 C873.86516,26.3898169 869.000634,28.8540438 866.266263,28.8540438 C863.532057,28.8540438 859.093131,27.4723353 856.662027,27.4723353 C848.697951,27.4117771 846.146334,34.7442272 846.024001,36.785529 C845.900674,38.8287947 846.20659,41.8354266 848.030829,42.6775127 C847.66565,39.490352 849.041278,38.4101249 849.589212,37.2670483 C849.888672,36.6432991 849.953894,35.4969491 850.164791,34.2425763 C850.263287,33.6585991 850.751626,33.671038 850.741694,34.28153 C850.704282,36.5040152 852.074117,37.2516633 852.346759,37.5678752 C852.62801,37.8942347 853.258051,38.2880266 852.771532,39.0710275 C851.329523,41.2869659 853.693418,47.1768219 854.288696,48.7068162 C855.067556,50.7101464 859.194938,49.9101237 859.207022,49.429259 C859.237316,48.1801237 857.322858,48.8055097 856.895602,48.1455892 C856.470664,47.484032 855.037759,43.2772024 854.91675,41.9540879 C854.792762,40.6324465 857.756239,39.1905071 858.909052,38.4094703 C860.066003,37.628106 864.441197,37.5092811 866.083508,38.2295961 C867.721846,38.9512205 870.471613,46.5299951 871.018885,48.7069799 C871.797083,50.71031 875.92463,49.9102873 875.937376,49.4294226 C875.968663,48.1802874 874.053709,48.8056734 873.625957,48.1457529 C870.647415,43.5166527 871.06656,38.8191382 871.978183,38.1086434 C874.359956,36.2053161 876.952626,32.217478 878.483365,30.3563778 C879.54033,29.071726 883.221916,29.1465235 885.010067,29.0759814 C886.001479,29.0375188 885.999493,28.3086929 886,28.0113031 C886.001645,27.4819919 885.813096,26.9971991 884.074937,26.9896702 Z" id="Path" transform="translate(866.000000, 35.000000) scale(-1, 1) translate(-866.000000, -35.000000) "></path>
        </g>
    </g>
</svg>