<?xml version="1.0" encoding="UTF-8"?>
<svg width="11px" height="11px" viewBox="0 0 11 11" version="1.1" xmlns="http://www.w3.org/2000/svg" xmlns:xlink="http://www.w3.org/1999/xlink">
    <!-- Generator: Sketch 55 (78076) - https://sketchapp.com -->
    <title>Shape</title>
    <desc>Created with Sketch.</desc>
    <g id="Page-1" stroke="none" stroke-width="1" fill="none" fill-rule="evenodd">
        <g id="Coyote---Image-Recognition---V1.0-Copy-9" transform="translate(-959.000000, -277.000000)" fill="#FFFFFF" fill-rule="nonzero">
            <g id="Group-5" transform="translate(952.000000, 270.000000)">
                <path d="M17.8653061,17.2187755 L15.2208163,14.5742857 C15.8763265,13.775102 16.2714286,12.7514286 16.2714286,11.6357143 C16.2714286,9.07653061 14.194898,7 11.6357143,7 C9.07428571,7 7,9.07653061 7,11.6357143 C7,14.194898 9.07428571,16.2714286 11.6357143,16.2714286 C12.7514286,16.2714286 13.7728571,15.8785714 14.5720408,15.2230612 L17.2165306,17.8653061 C17.3961224,18.044898 17.6857143,18.044898 17.8653061,17.8653061 C18.044898,17.6879592 18.044898,17.3961224 17.8653061,17.2187755 Z M11.5,15 C9.56918429,15 8,13.4303415 8,11.5010577 C8,9.57177395 9.56918429,8 11.5,8 C13.4287009,8 15,9.57177395 15,11.5010577 C15,13.4303415 13.4287009,15 11.5,15 Z" id="Shape"></path>
            </g>
        </g>
    </g>
</svg>