<?xml version="1.0" encoding="UTF-8"?>
<svg width="21px" height="35px" viewBox="0 0 21 35" version="1.1" xmlns="http://www.w3.org/2000/svg" xmlns:xlink="http://www.w3.org/1999/xlink">
    <!-- Generator: Sketch 56.3 (81716) - https://sketch.com -->
    <title>icon-person</title>
    <desc>Created with Sketch.</desc>
    <g id="Page-1" stroke="none" stroke-width="1" fill="none" fill-rule="evenodd">
        <g id="Alert-Train-Moving:-Video" transform="translate(-881.000000, -16.000000)" fill="#FFFFFF" fill-rule="nonzero">
            <g id="man-walking-directions-button" transform="translate(881.000000, 16.000000)">
                <path d="M12.8314239,5.77981651 C14.4353519,5.77981651 15.7184943,4.49541284 15.7184943,2.88990826 C15.7184943,1.28440367 14.4353519,0 12.8314239,0 C11.2274959,0 9.94435352,1.28440367 9.94435352,2.88990826 C9.94435352,4.49541284 11.2274959,5.77981651 12.8314239,5.77981651 Z M12.9918167,15.733945 L20.8510638,15.733945 L20.8510638,12.8440367 L15.0769231,12.8440367 L11.8690671,7.54587156 C11.3878887,6.74311927 10.4255319,6.10091743 9.46317512,6.10091743 C9.14238953,6.10091743 8.98199673,6.10091743 8.66121113,6.26146789 L5.15143483e-14,8.99082569 L5.15143483e-14,17.3394495 L2.88707038,17.3394495 L2.88707038,11.3990826 L6.25531915,10.2752294 L5.15143483e-14,35 L2.88707038,35 L7.53846154,21.9953499 L11.2274959,26.9724771 L11.2274959,35 L14.1145663,35 L14.1145663,24.7247077 L10.1047463,17.499937 L11.2274959,12.8440367 L12.9918167,15.733945 Z" id="icon-person"></path>
            </g>
        </g>
    </g>
</svg>