<?xml version="1.0" encoding="UTF-8"?>
<svg width="28px" height="36px" viewBox="0 0 28 36" version="1.1" xmlns="http://www.w3.org/2000/svg" xmlns:xlink="http://www.w3.org/1999/xlink">
    <!-- Generator: Sketch 56.1 (81669) - https://sketch.com -->
    <title>icon-alert-train</title>
    <desc>Created with Sketch.</desc>
    <g id="Page-1" stroke="none" stroke-width="1" fill="none" fill-rule="evenodd">
        <g id="Alert-Train-Moving:-Video" transform="translate(-816.000000, -17.000000)" fill="#FFFFFF" fill-rule="nonzero">
            <path d="M843.815662,50.5984683 L838.615399,41.0213348 C840.0901,40.7858315 841.176661,39.4513129 841.176661,37.9597306 L841.176661,23.8295336 C841.176661,20.0615427 838.149643,17 834.424081,17 L825.575873,17 C821.850311,17 818.745677,20.0615427 818.745677,23.9080963 L818.745677,37.9597921 C818.745677,39.529814 819.832299,40.7858315 821.307,41.0213964 L816.184353,50.5984683 C815.796274,51.3834792 816.029121,52.3254923 816.80528,52.7179978 C817.038128,52.875 817.270975,52.875 817.503823,52.875 C818.047134,52.875 818.590445,52.5609956 818.823292,52.0899891 L819.288988,51.3049781 L840.710966,51.3049781 L841.1766,52.0899891 C841.487125,52.6394967 841.952759,52.875 842.496131,52.875 C842.728918,52.875 842.961765,52.7965605 843.194674,52.7179978 C843.970832,52.3254923 844.203741,51.3834792 843.815662,50.5984683 Z M836.125,43.25 L823,43.25 L824.328125,40.625 L834.796875,40.625 L836.125,43.25 Z M836.56253,38 C835.355649,38 834.375,37.0194098 834.375,35.8124704 C834.375,34.6055902 835.35559,33.625 836.56253,33.625 C837.769351,33.625 838.75,34.6055902 838.75,35.8124704 C838.749941,36.9439798 837.769351,38 836.56253,38 Z M821.25,24.8821138 C821.25,22.4563008 823.238636,20.5 825.625,20.5 L834.295455,20.5 C836.681818,20.5 838.75,22.4563008 838.75,24.8821138 L838.75,28.6382114 C838.75,29.4989837 838.034091,30.125 837.159091,30.125 L822.840909,30.125 C821.965909,30.125 821.329545,29.4207317 821.329545,28.6382114 L821.25,24.8821138 L821.25,24.8821138 Z M823.4375,33.625 C824.644397,33.625 825.625,34.6055902 825.625,35.8125296 C825.625,37.0193507 824.644397,38 823.4375,38 C822.230603,38 821.25,37.0194098 821.25,35.8125296 C821.25,34.6055902 822.230663,33.625 823.4375,33.625 Z M820.375,48.5 L822.110656,45.875 L837.889344,45.875 L839.625,48.5 L820.375,48.5 Z" id="icon-alert-train"></path>
        </g>
    </g>
</svg>